<svg id="pics" xmlns="http://www.w3.org/2000/svg" viewBox="0 0 150 150">
  <defs>
    <style>
      .cls-1 {
        fill: #7a1ea5;
      }

      .cls-2 {
        fill: #fff;
      }
    </style>
  </defs>
  <title>backhome</title>
  <path id="backhome" class="cls-1" d="M33.64854,69.45794c6.60883,12.56492-14.4158,77.3211,0,78.63163s85.49084,4.87646,91.66957-3.28378c6.6683-8.80682-12.44072-71.78867-11.1389-76.95972,1.31915-5.23995,31.30575,8.10664,32.17467,1.61187C150.63381,37.46723,78.20647,0,78.20647,0S4.8154,51.644,3.50642,64.21583C2.22605,76.51284,30.088,62.68857,33.64854,69.45794Z"/>
  <path id="backhome1" class="cls-2" d="M53,84c-4,8-11,18-3,20s12,6,18,0,3-15,0-20S53,84,53,84Z"/>
  <path id="backhome2" class="cls-2" d="M91,85s-12,2-13,4-8,8,0,12,13,5,20,3,9-2,5-10A16.77051,16.77051,0,0,0,91,85Z"/>
  <path id="backhome3" class="cls-2" d="M59,110c-5,0-8,10-7,14s6,6,15,6,13-9,12-14S59,110,59,110Z"/>
  <path id="backhome4" class="cls-2" d="M86,110c4-2,17,0,17,0s9,3,5,10-3,14-14,8-12-10-10-14Z"/>
</svg>
