<svg xmlns="http://www.w3.org/2000/svg" viewBox="0 0 50 50">
  <title>button_send</title>
  <g id="comments">
    <path d="M.10418,47.77268,4.6875,26.62118H24.06238a1.16094,1.16094,0,0,0,1.04183-1.11356V23.28024a1.16094,1.16094,0,0,0-1.04183-1.11356H4.6875L.20834,2.34923A2.21435,2.21435,0,0,1,0,1.45833,1.46851,1.46851,0,0,1,1.56251.01067c.20834,0,.3125.11136.52084.11136L48.95843,22.72346A1.6715,1.6715,0,0,1,50,24.28255a1.585,1.585,0,0,1-.93762,1.44783L2.08335,49.88854a1.24387,1.24387,0,0,1-.625.11151A1.651,1.651,0,0,1,0,48.32945,1.06339,1.06339,0,0,1,.10418,47.77268Z"/>
  </g>
</svg>
